<svg xmlns="http://www.w3.org/2000/svg" width="800" height="500" viewBox="0 0 800 500">
  <defs><linearGradient id="sky" x1="0" y1="0" x2="0" y2="1"><stop offset="0%" stop-color="#87CEEB"/><stop offset="100%" stop-color="#E0F0FF"/></linearGradient></defs>
  <rect width="800" height="500" fill="url(#sky)"/>
  <rect y="380" width="800" height="120" fill="#90B890"/>
  <rect y="390" width="800" height="60" fill="#C0B8A0"/>
  <rect x="180" y="140" width="50" height="250" fill="#D4A76A" rx="3"/>
  <rect x="185" y="145" width="40" height="240" fill="#C4955A"/>
  <rect x="570" y="140" width="50" height="250" fill="#D4A76A" rx="3"/>
  <rect x="575" y="145" width="40" height="240" fill="#C4955A"/>
  <rect x="170" y="130" width="460" height="30" fill="#D4A76A" rx="4"/>
  <rect x="280" y="80" width="240" height="55" fill="#B33A2A" rx="8"/>
  <text x="400" y="116" font-family="sans-serif" font-size="28" font-weight="bold" fill="#FFD700" text-anchor="middle">邵阳学院</text>
  <polygon points="170,130 400,40 630,130" fill="#B33A2A"/>
  <rect x="660" y="200" width="120" height="180" fill="#E8DCC8" rx="2"/>
  <rect x="20" y="220" width="100" height="160" fill="#E8DCC8" rx="2"/>
  <rect x="280" y="445" width="240" height="38" fill="rgba(0,0,0,0.45)" rx="19"/>
  <text x="400" y="469" font-family="sans-serif" font-size="15" fill="#fff" text-anchor="middle">📷 校门实拍 — 请替换真实照片</text>
</svg>
